Coordinates
version=1
nRows=22
nColumns=24
inDegrees=yes

Units are S.I. units (second, meters, Newtons, ...)
Angles are in degrees.

endheader
time	pelvis_tilt	pelvis_list	pelvis_rotation	pelvis_tx	pelvis_ty	pelvis_tz	hip_flexion_r	hip_adduction_r	hip_rotation_r	knee_angle_r	ankle_angle_r	subtalar_angle_r	mtp_angle_r	hip_flexion_l	hip_adduction_l	hip_rotation_l	knee_angle_l	ankle_angle_l	subtalar_angle_l	mtp_angle_l	lumbar_extension	lumbar_bending	lumbar_rotation
      0.64800000	      6.30829627	      0.60448635	      5.28716855	     -0.72480549	      0.98593487	      0.27539962	     19.41045021	      1.29743512	     -5.02187100	     -3.50729965	      6.67638168	    -13.94319391	     -0.75439268	    -26.79314336	      2.34662791	      1.96980705	     -6.37304699	      9.73398842	      2.97884641	      1.62922214	     -7.37195021	      1.81697758	     -4.46708233
      0.65216667	      6.20699920	      0.52092245	      5.41334027	     -0.71867544	      0.98513519	      0.27551276	     19.48812215	      1.40856714	     -5.02472607	     -3.92269427	      6.60518497	    -14.24955706	     -3.80176433	    -26.80408088	      2.15548028	      1.84608209	     -6.78223838	      9.44064175	      3.16133921	      7.36105524	     -7.18630604	      1.93442347	     -4.57477058
      0.65633333	      6.16766600	      0.43917467	      5.52256236	     -0.71249902	      0.98442903	      0.27560547	     19.50964733	      1.51687728	     -5.09660483	     -4.37832587	      6.47731900	    -14.38063206	     -3.81070538	    -26.91829913	      1.98228420	      1.85246185	     -7.13676643	      9.20762640	      3.16326809	      7.36431186	     -7.07966625	      2.04844529	     -4.62257942
      0.66050000	      6.03410186	      0.34915017	      5.65064025	     -0.70626900	      0.98363420	      0.27570119	     19.61479377	      1.62745940	     -5.08896635	     -4.82515020	      6.26571456	    -14.71801528	     -3.82264425	    -26.89239951	      1.79357218	      1.83179520	     -7.56579856	      9.00767950	      3.33368754	      7.41906829	     -6.84739665	      2.17498297	     -4.76085685
      0.66466667	      5.94226734	      0.24626407	      5.74976261	     -0.69997953	      0.98290397	      0.27581525	     19.66797799	      1.76413445	     -5.05419178	     -5.27233371	      5.98755461	    -15.11246143	     -3.82659920	    -26.91155829	      1.60107822	      1.75683729	     -7.99370040	      8.76571454	      3.48525320	      7.50091133	     -6.64036588	      2.33680930	     -4.80218414
      0.66883333	      5.85545236	      0.12775251	      5.82828752	     -0.69370606	      0.98219210	      0.27601746	     19.69020635	      1.94302320	     -4.85017838	     -5.67326425	      5.62880310	    -15.79449864	     -3.81485839	    -26.88376492	      1.39254832	      1.58544768	     -8.51927667	      8.56119760	      3.68852976	      7.73204376	     -6.48478640	      2.47055870	     -4.84408551
      0.67300000	      5.77250052	      0.00126903	      5.91148707	     -0.68734588	      0.98152035	      0.27616237	     19.71795611	      2.11576702	     -4.76160051	     -6.10603762	      5.22129432	    -16.30941615	     -3.79485046	    -26.88635235	      1.18150267	      1.49692335	     -8.99090329	      8.26695951	      3.79123945	      7.99247738	     -6.28922606	      2.64920061	     -4.83836421
      0.67716667	      5.74513152	     -0.13463125	      5.97305140	     -0.68094209	      0.98092854	      0.27629457	     19.73754682	      2.29154650	     -4.82418887	     -6.65940273	      4.93507246	    -16.49238326	     -3.79504101	    -26.96750445	      0.97167091	      1.42927923	     -9.42065122	      7.88175505	      3.77648471	      8.03612835	     -6.17660292	      2.83677926	     -4.83429067
      0.68133333	      5.60120444	     -0.31030976	      6.02678708	     -0.67450296	      0.98024889	      0.27654771	     19.78954217	      2.54782410	     -4.49845219	     -7.01753144	      4.35847261	    -17.58707721	     -3.73504184	    -26.85265557	      0.71492693	      1.23298937	     -9.98093932	      7.58978739	      4.07796153	      8.59549341	     -5.89713147	      3.06441952	     -4.82192076
      0.68550000	      5.60572444	     -0.50002576	      6.06907485	     -0.66802301	      0.97979820	      0.27676928	     19.67287905	      2.82411147	     -4.28414034	     -7.34889102	      3.69728347	    -18.34722830	     -3.50576957	    -26.92716399	      0.44233877	      1.06250591	    -10.46663137	      7.08714231	      4.15099252	     10.66797724	     -5.80962834	      3.32024824	     -4.77922407
      0.68966667	      5.41288005	     -0.63813056	      6.13747537	     -0.66155016	      0.97913639	      0.27691173	     19.87853494	      2.97881012	     -4.34683233	     -7.92876243	      3.24820230	    -18.56623091	     -3.49339243	    -26.73065158	      0.23952206	      1.01749087	    -11.07253616	      6.67462910	      4.15936527	     10.84783369	     -5.46952855	      3.49875971	     -4.73506654
      0.69383333	      5.31561606	     -0.84098324	      6.13963035	     -0.65503789	      0.97860714	      0.27719812	     19.93901997	      3.26178323	     -4.16671823	     -8.41007450	      2.66703740	    -19.36007657	     -3.44513350	    -26.64071695	     -0.02194265	      0.82039935	    -11.66082912	      6.25201094	      4.31041113	     11.40446068	     -5.24694683	      3.76089468	     -4.66548557
      0.69800000	      5.21352951	     -1.04827956	      6.16836679	     -0.64850408	      0.97816280	      0.27745184	     19.97834818	      3.54076504	     -3.99909797	     -8.84610001	      2.11589443	    -20.10810051	     -3.36711274	    -26.51904523	     -0.29889912	      0.67137862	    -12.28172919	      5.66820320	      4.38878407	     12.44331215	     -5.00973110	      4.02775415	     -4.58207124
      0.70216667	      5.13554851	     -1.23466180	      6.17348926	     -0.64197316	      0.97776248	      0.27767695	     20.05274574	      3.77217954	     -4.03515523	     -9.39465727	      1.50501318	    -20.24212158	     -3.35685036	    -26.41725377	     -0.53527860	      0.57059684	    -12.91633220	      5.08106021	      4.34185907	     12.73046667	     -4.81372765	      4.27110074	     -4.51741708
      0.70633333	      5.04630494	     -1.45801761	      6.15359057	     -0.63541496	      0.97740352	      0.27799426	     20.13050950	      4.07027565	     -3.92499764	     -9.94072973	      0.98184896	    -20.86740971	     -3.11300697	    -26.28854445	     -0.80848516	      0.40575692	    -13.54988253	      4.37153248	      4.30222299	     17.99147910	     -4.60137403	      4.55749525	     -4.46604808
      0.71050000	      4.96616035	     -1.68404337	      6.12271334	     -0.62882968	      0.97710448	      0.27827687	     20.22640941	      4.34913208	     -3.95334099	    -10.54501538	      0.51834794	    -21.00877402	     -3.11937381	    -26.15352055	     -1.07238061	      0.27481583	    -14.21383791	      3.68251712	      4.29464097	     18.01586355	     -4.39023347	      4.85617295	     -4.37325514
      0.71466667	      4.84228775	     -1.89160049	      6.08052723	     -0.62233417	      0.97679470	      0.27864117	     20.35625904	      4.62378295	     -3.84604310	    -11.11943199	      0.00579044	    -21.43290169	     -3.12950661	    -25.88969919	     -1.32053653	      0.10472586	    -15.03460707	      3.03537643	      4.32640505	     18.14881247	     -4.13653536	      5.11197785	     -4.20360920
      0.71883333	      4.74835784	     -2.13383127	      6.00410358	     -0.61580094	      0.97656734	      0.27905220	     20.47545259	      4.94661587	     -3.74516928	    -11.74691491	     -0.44008212	    -21.92267719	     -3.14983779	    -25.66768776	     -1.59006864	     -0.07168979	    -15.81933007	      2.31915529	      4.32656558	     18.44445368	     -3.92709215	      5.41826462	     -4.06351211
      0.72300000	      4.72526030	     -2.39700850	      5.91706758	     -0.60926079	      0.97650092	      0.27952214	     20.47509828	      5.31842747	     -3.53944791	    -12.29046497	     -0.84395119	    -22.50775431	     -3.25507792	    -25.49913707	     -1.89313039	     -0.29978712	    -16.62431361	      1.46698554	      4.33870112	     20.05157494	     -3.79650888	      5.75196469	     -3.93620450
      0.72716667	      4.60206357	     -2.60362678	      5.85453434	     -0.60278516	      0.97632888	      0.27989089	     20.68029424	      5.55892320	     -3.64380109	    -13.04798539	     -1.11614848	    -22.43925977	     -3.28586055	    -25.16922647	     -2.12275446	     -0.36951708	    -17.53234332	      0.68545544	      4.21471138	     20.35206406	     -3.54793598	      6.01485775	     -3.81483539
      0.73133333	      4.56968127	     -2.84880738	      5.77353899	     -0.59628854	      0.97635017	      0.28032035	     20.73363330	      5.87342823	     -3.62453066	    -13.69689801	     -1.36305144	    -22.48496845	     -3.30157606	    -24.92892266	     -2.39837801	     -0.48793720	    -18.42490397	     -0.24934187	      4.12951446	     20.48018154	     -3.41900715	      6.31825476	     -3.73417780
      0.73550000	      4.48573433	     -3.06503605	      5.66995990	     -0.58987079	      0.97633069	      0.28080350	     20.85132758	      6.16169052	     -3.55232989	    -14.37054608	     -1.57295173	    -22.60467132	     -3.33391982	    -24.56564100	     -2.63825419	     -0.62815923	    -19.44597361	     -1.13532289	      4.05267295	     20.74698468	     -3.21892129	      6.59334382	     -3.56793229
